<svg xmlns="http://www.w3.org/2000/svg" viewBox="0 0 1200 560" role="img" aria-label="ALI KHALILI. Portfolio, digital garden, life record.">
  <!-- The archive wall: the dossier tagged after hours. Hand-built; no fonts
       embedded for the tag itself (pixel glyphs are raw rects). Colors follow
       the Rangefinder seed. Regenerate with the owner's gen-profile-art script. -->
  <defs>
    <filter id="grain"><feTurbulence type="fractalNoise" baseFrequency="0.9" numOctaves="2" stitchTiles="stitch"/><feColorMatrix type="matrix" values="0 0 0 0 0.94 0 0 0 0 0.92 0 0 0 0 0.89 0 0 0 0.05 0"/></filter>
    <filter id="spray" x="-30%" y="-30%" width="160%" height="160%"><feTurbulence type="turbulence" baseFrequency="0.18" numOctaves="2" result="t" seed="7"/><feDisplacementMap in="SourceGraphic" in2="t" scale="14"/></filter>
    <filter id="halo" x="-60%" y="-60%" width="220%" height="220%"><feGaussianBlur stdDeviation="26"/></filter>
    <radialGradient id="vig" cx="50%" cy="42%" r="75%"><stop offset="60%" stop-color="#17140f" stop-opacity="0"/><stop offset="100%" stop-color="#0d0b08" stop-opacity="0.72"/></radialGradient>
  </defs>
  <style>
    .blink{animation:blink 1.6s steps(2) infinite}
    .scan{animation:scan 9s linear infinite}
    .fall{animation:fall 4.6s ease-in infinite}
    .f2{animation-duration:6.2s;animation-delay:1.4s}
    @keyframes blink{50%{opacity:0}}
    @keyframes scan{0%{transform:translateY(0)}100%{transform:translateY(560px)}}
    @keyframes drip{0%,20%{transform:scaleY(0.55)}70%,100%{transform:scaleY(1)}}
    @media (prefers-reduced-motion: reduce){*{animation:none!important}}
  </style>

  <rect width="1200" height="560" fill="#17140f"/>
  <rect width="1200" height="560" filter="url(#grain)"/>

  <!-- dossier registration frame -->
  <rect x="26" y="26" width="1148" height="508" fill="none" stroke="#efeae3" stroke-opacity="0.14" stroke-dasharray="4 8"/>
  <g stroke="#efeae3" stroke-opacity="0.5" stroke-width="2">
    <path d="M26 46 V26 H46 M1154 26 H1174 V46 M1174 514 V534 H1154 M46 534 H26 V514"/>
  </g>

  <!-- ghost of an older tag -->
  <g transform="translate(600 104) rotate(-7)" fill="none" stroke="#efeae3" stroke-opacity="0.055" stroke-width="1.5"><rect x="0" y="0" width="43" height="43"/><rect x="176" y="0" width="43" height="43"/><rect x="0" y="44" width="43" height="43"/><rect x="176" y="44" width="43" height="43"/><rect x="0" y="88" width="43" height="43"/><rect x="176" y="88" width="43" height="43"/><rect x="0" y="132" width="43" height="43"/><rect x="176" y="132" width="43" height="43"/><rect x="0" y="176" width="43" height="43"/><rect x="176" y="176" width="43" height="43"/><rect x="44" y="220" width="43" height="43"/><rect x="132" y="220" width="43" height="43"/><rect x="88" y="264" width="43" height="43"/><rect x="264" y="0" width="43" height="43"/><rect x="308" y="0" width="43" height="43"/><rect x="352" y="0" width="43" height="43"/><rect x="308" y="44" width="43" height="43"/><rect x="308" y="88" width="43" height="43"/><rect x="308" y="132" width="43" height="43"/><rect x="308" y="176" width="43" height="43"/><rect x="308" y="220" width="43" height="43"/><rect x="264" y="264" width="43" height="43"/><rect x="308" y="264" width="43" height="43"/><rect x="352" y="264" width="43" height="43"/><rect x="440" y="0" width="43" height="43"/><rect x="484" y="0" width="43" height="43"/><rect x="528" y="0" width="43" height="43"/><rect x="572" y="0" width="43" height="43"/><rect x="616" y="0" width="43" height="43"/><rect x="528" y="44" width="43" height="43"/><rect x="528" y="88" width="43" height="43"/><rect x="528" y="132" width="43" height="43"/><rect x="528" y="176" width="43" height="43"/><rect x="528" y="220" width="43" height="43"/><rect x="528" y="264" width="43" height="43"/><rect x="748" y="0" width="43" height="43"/><rect x="792" y="0" width="43" height="43"/><rect x="836" y="0" width="43" height="43"/><rect x="704" y="44" width="43" height="43"/><rect x="880" y="44" width="43" height="43"/><rect x="704" y="88" width="43" height="43"/><rect x="880" y="88" width="43" height="43"/><rect x="704" y="132" width="43" height="43"/><rect x="748" y="132" width="43" height="43"/><rect x="792" y="132" width="43" height="43"/><rect x="836" y="132" width="43" height="43"/><rect x="880" y="132" width="43" height="43"/><rect x="704" y="176" width="43" height="43"/><rect x="880" y="176" width="43" height="43"/><rect x="704" y="220" width="43" height="43"/><rect x="880" y="220" width="43" height="43"/><rect x="704" y="264" width="43" height="43"/><rect x="880" y="264" width="43" height="43"/></g>

  <!-- spray halo behind the tag -->
  <ellipse cx="330" cy="205" rx="300" ry="150" fill="#ff7038" opacity="0.16" filter="url(#halo)"/>

  <!-- splatter -->
  <g filter="url(#spray)" opacity="0.85">
    <circle cx="533.5" cy="118.9" r="1.3" fill="#ff7038"/><circle cx="563.1" cy="117.5" r="0.9" fill="#ff7038"/><circle cx="567.2" cy="119.7" r="2.6" fill="#ff7038"/><circle cx="574.0" cy="125.7" r="2.0" fill="#ff7038"/><circle cx="605.8" cy="126.4" r="1.1" fill="#ff7038"/><circle cx="554.7" cy="130.5" r="2.3" fill="#ff7038"/><circle cx="534.4" cy="118.8" r="1.2" fill="#ff7038"/><circle cx="550.5" cy="144.9" r="4.4" fill="#ff7038"/><circle cx="555.9" cy="125.5" r="0.9" fill="#ff7038"/><circle cx="546.4" cy="152.5" r="3.5" fill="#ff7038"/><circle cx="568.7" cy="110.2" r="1.2" fill="#ff7038"/><circle cx="542.4" cy="126.7" r="0.8" fill="#ff7038"/><circle cx="569.2" cy="139.1" r="2.2" fill="#ff7038"/><circle cx="564.9" cy="127.6" r="2.0" fill="#ff7038"/><circle cx="561.0" cy="175.7" r="1.2" fill="#ff7038"/><circle cx="579.9" cy="87.9" r="3.4" fill="#ff7038"/><circle cx="571.0" cy="132.0" r="4.1" fill="#ff7038"/><circle cx="547.8" cy="135.3" r="4.6" fill="#ff7038"/><circle cx="565.2" cy="122.4" r="1.5" fill="#ff7038"/><circle cx="550.1" cy="129.0" r="3.1" fill="#ff7038"/><circle cx="561.4" cy="120.9" r="1.4" fill="#ff7038"/><circle cx="568.0" cy="131.0" r="1.2" fill="#ff7038"/><circle cx="574.9" cy="103.3" r="1.4" fill="#ff7038"/><circle cx="556.3" cy="113.5" r="2.4" fill="#ff7038"/><circle cx="501.8" cy="116.9" r="0.8" fill="#ff7038"/><circle cx="560.3" cy="124.0" r="1.3" fill="#ff7038"/>
    <circle cx="666.6" cy="321.7" r="1.3" fill="#8fc3d8"/><circle cx="656.5" cy="327.3" r="0.7" fill="#8fc3d8"/><circle cx="640.2" cy="323.9" r="1.4" fill="#8fc3d8"/><circle cx="660.0" cy="330.0" r="0.7" fill="#8fc3d8"/><circle cx="658.7" cy="343.9" r="1.2" fill="#8fc3d8"/><circle cx="662.9" cy="333.1" r="0.7" fill="#8fc3d8"/><circle cx="657.9" cy="331.6" r="2.1" fill="#8fc3d8"/><circle cx="649.8" cy="328.0" r="1.8" fill="#8fc3d8"/><circle cx="651.6" cy="319.1" r="1.9" fill="#8fc3d8"/><circle cx="657.5" cy="325.2" r="3.0" fill="#8fc3d8"/><circle cx="664.8" cy="320.3" r="1.5" fill="#8fc3d8"/><circle cx="659.9" cy="330.0" r="0.7" fill="#8fc3d8"/><circle cx="655.9" cy="324.8" r="1.2" fill="#8fc3d8"/><circle cx="660.8" cy="323.8" r="1.9" fill="#8fc3d8"/><circle cx="661.0" cy="326.3" r="2.5" fill="#8fc3d8"/><circle cx="653.0" cy="312.6" r="1.0" fill="#8fc3d8"/>
    <circle cx="858.6" cy="428.1" r="1.6" fill="#ff7038"/><circle cx="866.8" cy="429.1" r="2.4" fill="#ff7038"/><circle cx="869.5" cy="434.0" r="1.2" fill="#ff7038"/><circle cx="865.7" cy="430.0" r="1.2" fill="#ff7038"/><circle cx="862.2" cy="418.4" r="3.0" fill="#ff7038"/><circle cx="865.9" cy="429.9" r="1.2" fill="#ff7038"/><circle cx="877.8" cy="428.9" r="3.7" fill="#ff7038"/><circle cx="863.0" cy="433.7" r="0.7" fill="#ff7038"/><circle cx="865.2" cy="435.4" r="3.6" fill="#ff7038"/><circle cx="866.1" cy="430.0" r="1.6" fill="#ff7038"/><circle cx="866.0" cy="430.1" r="0.7" fill="#ff7038"/><circle cx="856.3" cy="437.0" r="2.8" fill="#ff7038"/>
  </g>

  <!-- THE TAG -->
  <g transform="translate(84 96) rotate(-2)">
    <g transform="translate(7 8)" fill="#0d0b08" opacity="0.85"><rect x="30" y="0" width="29" height="29"/><rect x="60" y="0" width="29" height="29"/><rect x="90" y="0" width="29" height="29"/><rect x="0" y="30" width="29" height="29"/><rect x="120" y="30" width="29" height="29"/><rect x="0" y="60" width="29" height="29"/><rect x="120" y="60" width="29" height="29"/><rect x="0" y="90" width="29" height="29"/><rect x="30" y="90" width="29" height="29"/><rect x="60" y="90" width="29" height="29"/><rect x="90" y="90" width="29" height="29"/><rect x="120" y="90" width="29" height="29"/><rect x="0" y="120" width="29" height="29"/><rect x="120" y="120" width="29" height="29"/><rect x="0" y="150" width="29" height="29"/><rect x="120" y="150" width="29" height="29"/><rect x="0" y="180" width="29" height="29"/><rect x="120" y="180" width="29" height="29"/><rect x="180" y="0" width="29" height="29"/><rect x="180" y="30" width="29" height="29"/><rect x="180" y="60" width="29" height="29"/><rect x="180" y="90" width="29" height="29"/><rect x="180" y="120" width="29" height="29"/><rect x="180" y="150" width="29" height="29"/><rect x="180" y="180" width="29" height="29"/><rect x="210" y="180" width="29" height="29"/><rect x="240" y="180" width="29" height="29"/><rect x="270" y="180" width="29" height="29"/><rect x="300" y="180" width="29" height="29"/><rect x="360" y="0" width="29" height="29"/><rect x="390" y="0" width="29" height="29"/><rect x="420" y="0" width="29" height="29"/><rect x="390" y="30" width="29" height="29"/><rect x="390" y="60" width="29" height="29"/><rect x="390" y="90" width="29" height="29"/><rect x="390" y="120" width="29" height="29"/><rect x="390" y="150" width="29" height="29"/><rect x="360" y="180" width="29" height="29"/><rect x="390" y="180" width="29" height="29"/><rect x="420" y="180" width="29" height="29"/></g>
    <g fill="#ff7038"><rect x="30" y="0" width="29" height="29"/><rect x="60" y="0" width="29" height="29"/><rect x="90" y="0" width="29" height="29"/><rect x="0" y="30" width="29" height="29"/><rect x="120" y="30" width="29" height="29"/><rect x="0" y="60" width="29" height="29"/><rect x="120" y="60" width="29" height="29"/><rect x="0" y="90" width="29" height="29"/><rect x="30" y="90" width="29" height="29"/><rect x="60" y="90" width="29" height="29"/><rect x="90" y="90" width="29" height="29"/><rect x="120" y="90" width="29" height="29"/><rect x="0" y="120" width="29" height="29"/><rect x="120" y="120" width="29" height="29"/><rect x="0" y="150" width="29" height="29"/><rect x="120" y="150" width="29" height="29"/><rect x="0" y="180" width="29" height="29"/><rect x="120" y="180" width="29" height="29"/><rect x="180" y="0" width="29" height="29"/><rect x="180" y="30" width="29" height="29"/><rect x="180" y="60" width="29" height="29"/><rect x="180" y="90" width="29" height="29"/><rect x="180" y="120" width="29" height="29"/><rect x="180" y="150" width="29" height="29"/><rect x="180" y="180" width="29" height="29"/><rect x="210" y="180" width="29" height="29"/><rect x="240" y="180" width="29" height="29"/><rect x="270" y="180" width="29" height="29"/><rect x="300" y="180" width="29" height="29"/><rect x="360" y="0" width="29" height="29"/><rect x="390" y="0" width="29" height="29"/><rect x="420" y="0" width="29" height="29"/><rect x="390" y="30" width="29" height="29"/><rect x="390" y="60" width="29" height="29"/><rect x="390" y="90" width="29" height="29"/><rect x="390" y="120" width="29" height="29"/><rect x="390" y="150" width="29" height="29"/><rect x="360" y="180" width="29" height="29"/><rect x="390" y="180" width="29" height="29"/><rect x="420" y="180" width="29" height="29"/></g>
    <rect x="132" y="208" width="5" height="26" fill="#ff7038"/><circle cx="134.5" cy="234" r="3.5999999999999996" fill="#ff7038"/><rect x="252" y="208" width="7" height="40" fill="#ff7038"/><circle cx="255.5" cy="248" r="5.04" fill="#ff7038"/><rect x="372" y="208" width="5" height="54" fill="#ff7038"/><circle cx="374.5" cy="262" r="3.5999999999999996" fill="#ff7038"/><circle class="fall f1" cx="255" cy="250" r="4" fill="#ff7038"/><circle class="fall f2" cx="375" cy="280" r="3.4" fill="#ff7038"/>
  </g>
  <g transform="translate(88 350) rotate(-2)">
    <g transform="translate(4 5)" fill="#8fc3d8" opacity="0.55"><rect x="0" y="0" width="15" height="15"/><rect x="64" y="0" width="15" height="15"/><rect x="0" y="16" width="15" height="15"/><rect x="48" y="16" width="15" height="15"/><rect x="0" y="32" width="15" height="15"/><rect x="32" y="32" width="15" height="15"/><rect x="0" y="48" width="15" height="15"/><rect x="16" y="48" width="15" height="15"/><rect x="0" y="64" width="15" height="15"/><rect x="32" y="64" width="15" height="15"/><rect x="0" y="80" width="15" height="15"/><rect x="48" y="80" width="15" height="15"/><rect x="0" y="96" width="15" height="15"/><rect x="64" y="96" width="15" height="15"/><rect x="96" y="0" width="15" height="15"/><rect x="160" y="0" width="15" height="15"/><rect x="96" y="16" width="15" height="15"/><rect x="160" y="16" width="15" height="15"/><rect x="96" y="32" width="15" height="15"/><rect x="160" y="32" width="15" height="15"/><rect x="96" y="48" width="15" height="15"/><rect x="112" y="48" width="15" height="15"/><rect x="128" y="48" width="15" height="15"/><rect x="144" y="48" width="15" height="15"/><rect x="160" y="48" width="15" height="15"/><rect x="96" y="64" width="15" height="15"/><rect x="160" y="64" width="15" height="15"/><rect x="96" y="80" width="15" height="15"/><rect x="160" y="80" width="15" height="15"/><rect x="96" y="96" width="15" height="15"/><rect x="160" y="96" width="15" height="15"/><rect x="208" y="0" width="15" height="15"/><rect x="224" y="0" width="15" height="15"/><rect x="240" y="0" width="15" height="15"/><rect x="192" y="16" width="15" height="15"/><rect x="256" y="16" width="15" height="15"/><rect x="192" y="32" width="15" height="15"/><rect x="256" y="32" width="15" height="15"/><rect x="192" y="48" width="15" height="15"/><rect x="208" y="48" width="15" height="15"/><rect x="224" y="48" width="15" height="15"/><rect x="240" y="48" width="15" height="15"/><rect x="256" y="48" width="15" height="15"/><rect x="192" y="64" width="15" height="15"/><rect x="256" y="64" width="15" height="15"/><rect x="192" y="80" width="15" height="15"/><rect x="256" y="80" width="15" height="15"/><rect x="192" y="96" width="15" height="15"/><rect x="256" y="96" width="15" height="15"/><rect x="288" y="0" width="15" height="15"/><rect x="288" y="16" width="15" height="15"/><rect x="288" y="32" width="15" height="15"/><rect x="288" y="48" width="15" height="15"/><rect x="288" y="64" width="15" height="15"/><rect x="288" y="80" width="15" height="15"/><rect x="288" y="96" width="15" height="15"/><rect x="304" y="96" width="15" height="15"/><rect x="320" y="96" width="15" height="15"/><rect x="336" y="96" width="15" height="15"/><rect x="352" y="96" width="15" height="15"/><rect x="384" y="0" width="15" height="15"/><rect x="400" y="0" width="15" height="15"/><rect x="416" y="0" width="15" height="15"/><rect x="400" y="16" width="15" height="15"/><rect x="400" y="32" width="15" height="15"/><rect x="400" y="48" width="15" height="15"/><rect x="400" y="64" width="15" height="15"/><rect x="400" y="80" width="15" height="15"/><rect x="384" y="96" width="15" height="15"/><rect x="400" y="96" width="15" height="15"/><rect x="416" y="96" width="15" height="15"/><rect x="448" y="0" width="15" height="15"/><rect x="448" y="16" width="15" height="15"/><rect x="448" y="32" width="15" height="15"/><rect x="448" y="48" width="15" height="15"/><rect x="448" y="64" width="15" height="15"/><rect x="448" y="80" width="15" height="15"/><rect x="448" y="96" width="15" height="15"/><rect x="464" y="96" width="15" height="15"/><rect x="480" y="96" width="15" height="15"/><rect x="496" y="96" width="15" height="15"/><rect x="512" y="96" width="15" height="15"/><rect x="544" y="0" width="15" height="15"/><rect x="560" y="0" width="15" height="15"/><rect x="576" y="0" width="15" height="15"/><rect x="560" y="16" width="15" height="15"/><rect x="560" y="32" width="15" height="15"/><rect x="560" y="48" width="15" height="15"/><rect x="560" y="64" width="15" height="15"/><rect x="560" y="80" width="15" height="15"/><rect x="544" y="96" width="15" height="15"/><rect x="560" y="96" width="15" height="15"/><rect x="576" y="96" width="15" height="15"/></g>
    <g fill="#efeae3"><rect x="0" y="0" width="15" height="15"/><rect x="64" y="0" width="15" height="15"/><rect x="0" y="16" width="15" height="15"/><rect x="48" y="16" width="15" height="15"/><rect x="0" y="32" width="15" height="15"/><rect x="32" y="32" width="15" height="15"/><rect x="0" y="48" width="15" height="15"/><rect x="16" y="48" width="15" height="15"/><rect x="0" y="64" width="15" height="15"/><rect x="32" y="64" width="15" height="15"/><rect x="0" y="80" width="15" height="15"/><rect x="48" y="80" width="15" height="15"/><rect x="0" y="96" width="15" height="15"/><rect x="64" y="96" width="15" height="15"/><rect x="96" y="0" width="15" height="15"/><rect x="160" y="0" width="15" height="15"/><rect x="96" y="16" width="15" height="15"/><rect x="160" y="16" width="15" height="15"/><rect x="96" y="32" width="15" height="15"/><rect x="160" y="32" width="15" height="15"/><rect x="96" y="48" width="15" height="15"/><rect x="112" y="48" width="15" height="15"/><rect x="128" y="48" width="15" height="15"/><rect x="144" y="48" width="15" height="15"/><rect x="160" y="48" width="15" height="15"/><rect x="96" y="64" width="15" height="15"/><rect x="160" y="64" width="15" height="15"/><rect x="96" y="80" width="15" height="15"/><rect x="160" y="80" width="15" height="15"/><rect x="96" y="96" width="15" height="15"/><rect x="160" y="96" width="15" height="15"/><rect x="208" y="0" width="15" height="15"/><rect x="224" y="0" width="15" height="15"/><rect x="240" y="0" width="15" height="15"/><rect x="192" y="16" width="15" height="15"/><rect x="256" y="16" width="15" height="15"/><rect x="192" y="32" width="15" height="15"/><rect x="256" y="32" width="15" height="15"/><rect x="192" y="48" width="15" height="15"/><rect x="208" y="48" width="15" height="15"/><rect x="224" y="48" width="15" height="15"/><rect x="240" y="48" width="15" height="15"/><rect x="256" y="48" width="15" height="15"/><rect x="192" y="64" width="15" height="15"/><rect x="256" y="64" width="15" height="15"/><rect x="192" y="80" width="15" height="15"/><rect x="256" y="80" width="15" height="15"/><rect x="192" y="96" width="15" height="15"/><rect x="256" y="96" width="15" height="15"/><rect x="288" y="0" width="15" height="15"/><rect x="288" y="16" width="15" height="15"/><rect x="288" y="32" width="15" height="15"/><rect x="288" y="48" width="15" height="15"/><rect x="288" y="64" width="15" height="15"/><rect x="288" y="80" width="15" height="15"/><rect x="288" y="96" width="15" height="15"/><rect x="304" y="96" width="15" height="15"/><rect x="320" y="96" width="15" height="15"/><rect x="336" y="96" width="15" height="15"/><rect x="352" y="96" width="15" height="15"/><rect x="384" y="0" width="15" height="15"/><rect x="400" y="0" width="15" height="15"/><rect x="416" y="0" width="15" height="15"/><rect x="400" y="16" width="15" height="15"/><rect x="400" y="32" width="15" height="15"/><rect x="400" y="48" width="15" height="15"/><rect x="400" y="64" width="15" height="15"/><rect x="400" y="80" width="15" height="15"/><rect x="384" y="96" width="15" height="15"/><rect x="400" y="96" width="15" height="15"/><rect x="416" y="96" width="15" height="15"/><rect x="448" y="0" width="15" height="15"/><rect x="448" y="16" width="15" height="15"/><rect x="448" y="32" width="15" height="15"/><rect x="448" y="48" width="15" height="15"/><rect x="448" y="64" width="15" height="15"/><rect x="448" y="80" width="15" height="15"/><rect x="448" y="96" width="15" height="15"/><rect x="464" y="96" width="15" height="15"/><rect x="480" y="96" width="15" height="15"/><rect x="496" y="96" width="15" height="15"/><rect x="512" y="96" width="15" height="15"/><rect x="544" y="0" width="15" height="15"/><rect x="560" y="0" width="15" height="15"/><rect x="576" y="0" width="15" height="15"/><rect x="560" y="16" width="15" height="15"/><rect x="560" y="32" width="15" height="15"/><rect x="560" y="48" width="15" height="15"/><rect x="560" y="64" width="15" height="15"/><rect x="560" y="80" width="15" height="15"/><rect x="544" y="96" width="15" height="15"/><rect x="560" y="96" width="15" height="15"/><rect x="576" y="96" width="15" height="15"/></g>
  </g>

  <!-- crew stickers -->
  <g transform="translate(940 96) rotate(6)">
      <rect x="-12" y="-16" width="92" height="104" fill="#efeae3"/>
      <rect x="-8" y="-12" width="84" height="96" fill="#1b1815"/>
      <g transform="translate(6 12)"><rect width="20" height="20" fill="#efeae3"/><rect x="24" width="20" height="20" fill="#ff7038"/><rect x="48" width="20" height="20" fill="#efeae3"/><rect y="24" width="20" height="20" fill="#efeae3"/><rect x="24" y="24" width="20" height="20" fill="#efeae3"/><rect x="48" y="24" width="20" height="20" fill="#8fc3d8"/></g>
      <text x="34" y="72" text-anchor="middle" font-family="ui-monospace, 'Cascadia Mono', 'SF Mono', Consolas, monospace" font-size="10" letter-spacing="1" fill="#efeae3">VITA</text>
    </g>
  <g transform="translate(1044 210) rotate(-5)">
      <rect x="-12" y="-16" width="92" height="104" fill="#efeae3"/>
      <rect x="-8" y="-12" width="84" height="96" fill="#1b1815"/>
      <g transform="translate(6 12)"><rect x="0" y="-7" width="68" height="4" fill="#efeae3"/><rect width="20" height="20" fill="#efeae3"/><rect x="24" width="20" height="20" fill="#ff7038"/><rect x="48" width="20" height="20" fill="#efeae3"/><rect y="24" width="20" height="20" fill="#efeae3"/><rect x="24" y="24" width="20" height="20" fill="#efeae3"/><rect x="48" y="24" width="20" height="20" fill="#8fc3d8"/></g>
      <text x="34" y="72" text-anchor="middle" font-family="ui-monospace, 'Cascadia Mono', 'SF Mono', Consolas, monospace" font-size="10" letter-spacing="1" fill="#efeae3">TABVLARIVM</text>
    </g>
  <g transform="translate(952 316) rotate(8)">
      <rect x="-12" y="-16" width="92" height="104" fill="#efeae3"/>
      <rect x="-8" y="-12" width="84" height="96" fill="#1b1815"/>
      <g transform="translate(6 12)"><rect width="20" height="20" fill="#efeae3"/><rect x="24" width="20" height="20" fill="#ff7038"/><polygon points="48,0 68,20 48,20" fill="#efeae3"/><rect y="24" width="20" height="20" fill="#efeae3"/><rect x="24" y="24" width="20" height="20" fill="#efeae3"/><rect x="48" y="24" width="20" height="20" fill="#8fc3d8"/></g>
      <text x="34" y="72" text-anchor="middle" font-family="ui-monospace, 'Cascadia Mono', 'SF Mono', Consolas, monospace" font-size="10" letter-spacing="1" fill="#efeae3">EPITOMA</text>
    </g>

  <!-- wet paint tape -->
  <g transform="translate(700 52) rotate(-4)">
    <rect width="170" height="34" fill="#efeae3" opacity="0.92"/>
    <text x="85" y="23" text-anchor="middle" font-family="ui-monospace, 'Cascadia Mono', 'SF Mono', Consolas, monospace" font-weight="700" font-size="15" letter-spacing="4" fill="#ff7038">WET PAINT</text>
  </g>

  <!-- live record lamp -->
  <g font-family="ui-monospace, 'Cascadia Mono', 'SF Mono', Consolas, monospace" font-size="13" letter-spacing="3">
    <circle class="blink" cx="52" cy="58" r="5" fill="#ff7038"/>
    <text x="68" y="63" fill="#efeae3" opacity="0.8">LIVE RECORD</text>
  </g>

  <!-- bottom registration band: stencil, barcode, plaque chip -->
  <text x="88" y="522" font-family="ui-monospace, 'Cascadia Mono', 'SF Mono', Consolas, monospace" font-size="14" letter-spacing="5" fill="#7a7166">PORTFOLIO · DIGITAL GARDEN · LIFE RECORD</text>
  <g transform="translate(742 496)"><rect x="0" width="4" height="26" fill="#efeae3"/><rect x="6" width="1" height="26" fill="#efeae3"/><rect x="9" width="2" height="26" fill="#efeae3"/><rect x="16" width="4" height="26" fill="#efeae3"/><rect x="25" width="1" height="26" fill="#efeae3"/><rect x="28" width="2" height="26" fill="#efeae3"/><rect x="32" width="2" height="26" fill="#efeae3"/><rect x="40" width="1" height="26" fill="#efeae3"/><rect x="52" width="2" height="26" fill="#efeae3"/><rect x="59" width="2" height="26" fill="#efeae3"/><rect x="71" width="4" height="26" fill="#efeae3"/><rect x="77" width="2" height="26" fill="#efeae3"/><rect x="84" width="1" height="26" fill="#efeae3"/><rect x="87" width="1" height="26" fill="#efeae3"/><rect x="90" width="4" height="26" fill="#efeae3"/><rect x="96" width="2" height="26" fill="#efeae3"/><rect x="100" width="1" height="26" fill="#efeae3"/></g>
  <g transform="translate(884 496)" font-family="ui-monospace, 'Cascadia Mono', 'SF Mono', Consolas, monospace">
    <rect width="252" height="30" fill="none" stroke="#7a7166" stroke-width="1"/>
    <text x="126" y="20" text-anchor="middle" font-size="13" letter-spacing="2" fill="#7a7166">EST. MMXXVI · CALGARY, CA</text>
  </g>

  <!-- scanline + vignette -->
  <rect class="scan" x="0" y="-4" width="1200" height="3" fill="#efeae3" opacity="0.05"/>
  <rect width="1200" height="560" fill="url(#vig)" pointer-events="none"/>
</svg>