<svg xmlns="http://www.w3.org/2000/svg" viewBox="0 0 1200 560" role="img" aria-label="ALI KHALILI. Portfolio, digital garden, life record.">
  <!-- The archive wall: the dossier tagged after hours. Hand-built; the tag is
       raw rects and the QR really encodes the site. Colors follow the
       Rangefinder seed. Regenerate with the owner's gen-profile-art script. -->
  <defs>
    <filter id="grain"><feTurbulence type="fractalNoise" baseFrequency="0.9" numOctaves="2" stitchTiles="stitch"/><feColorMatrix type="matrix" values="0 0 0 0 0.11 0 0 0 0 0.09 0 0 0 0 0.07 0 0 0 0.05 0"/></filter>
    <filter id="spray" x="-30%" y="-30%" width="160%" height="160%"><feTurbulence type="turbulence" baseFrequency="0.18" numOctaves="2" result="t" seed="7"/><feDisplacementMap in="SourceGraphic" in2="t" scale="14"/></filter>
    <filter id="halo" x="-60%" y="-60%" width="220%" height="220%"><feGaussianBlur stdDeviation="26"/></filter>
    <radialGradient id="vig" cx="50%" cy="42%" r="75%"><stop offset="60%" stop-color="#5a4f40" stop-opacity="0"/><stop offset="100%" stop-color="#5a4f40" stop-opacity="0.3"/></radialGradient>
  </defs>
  <style>
    .blink{animation:blink 1.6s steps(2) infinite}
    .scan{animation:scan 9s linear infinite}
    .fall{animation:fall 4.6s ease-in infinite}
    .f2{animation-duration:6.2s;animation-delay:1.4s}
    @keyframes blink{50%{opacity:0}}
    @keyframes scan{0%{transform:translateY(0)}100%{transform:translateY(560px)}}
    @keyframes fall{0%{transform:translateY(0);opacity:0}12%{opacity:1}82%{opacity:1}100%{transform:translateY(64px);opacity:0}}
    @media (prefers-reduced-motion: reduce){*{animation:none!important}}
  </style>

  <rect width="1200" height="560" fill="#ded7c9"/>
  <rect width="1200" height="560" filter="url(#grain)"/>

  <!-- dossier registration frame -->
  <rect x="26" y="26" width="1148" height="508" fill="none" stroke="#1b1815" stroke-opacity="0.14" stroke-dasharray="4 8"/>
  <g stroke="#1b1815" stroke-opacity="0.5" stroke-width="2">
    <path d="M26 46 V26 H46 M1154 26 H1174 V46 M1174 514 V534 H1154 M46 534 H26 V514"/>
  </g>

  <!-- ghost of an earlier pass by the same hand -->
  <g transform="translate(620 120) rotate(-7)" fill="none" stroke="#1b1815" stroke-opacity="0.055" stroke-width="1.5"><rect x="44" y="0" width="43" height="43"/><rect x="88" y="0" width="43" height="43"/><rect x="132" y="0" width="43" height="43"/><rect x="0" y="44" width="43" height="43"/><rect x="176" y="44" width="43" height="43"/><rect x="0" y="88" width="43" height="43"/><rect x="176" y="88" width="43" height="43"/><rect x="0" y="132" width="43" height="43"/><rect x="44" y="132" width="43" height="43"/><rect x="88" y="132" width="43" height="43"/><rect x="132" y="132" width="43" height="43"/><rect x="176" y="132" width="43" height="43"/><rect x="0" y="176" width="43" height="43"/><rect x="176" y="176" width="43" height="43"/><rect x="0" y="220" width="43" height="43"/><rect x="176" y="220" width="43" height="43"/><rect x="0" y="264" width="43" height="43"/><rect x="176" y="264" width="43" height="43"/><rect x="264" y="0" width="43" height="43"/><rect x="264" y="44" width="43" height="43"/><rect x="264" y="88" width="43" height="43"/><rect x="264" y="132" width="43" height="43"/><rect x="264" y="176" width="43" height="43"/><rect x="264" y="220" width="43" height="43"/><rect x="264" y="264" width="43" height="43"/><rect x="308" y="264" width="43" height="43"/><rect x="352" y="264" width="43" height="43"/><rect x="396" y="264" width="43" height="43"/><rect x="440" y="264" width="43" height="43"/><rect x="528" y="0" width="43" height="43"/><rect x="572" y="0" width="43" height="43"/><rect x="616" y="0" width="43" height="43"/><rect x="572" y="44" width="43" height="43"/><rect x="572" y="88" width="43" height="43"/><rect x="572" y="132" width="43" height="43"/><rect x="572" y="176" width="43" height="43"/><rect x="572" y="220" width="43" height="43"/><rect x="528" y="264" width="43" height="43"/><rect x="572" y="264" width="43" height="43"/><rect x="616" y="264" width="43" height="43"/></g>

  <!-- spray halo behind the tag -->
  <ellipse cx="330" cy="205" rx="300" ry="150" fill="#ff7038" opacity="0.16" filter="url(#halo)"/>

  <!-- splatter -->
  <g filter="url(#spray)" opacity="0.85">
    <circle cx="533.5" cy="118.9" r="1.3" fill="#ff7038"/><circle cx="563.1" cy="117.5" r="0.9" fill="#ff7038"/><circle cx="567.2" cy="119.7" r="2.6" fill="#ff7038"/><circle cx="574.0" cy="125.7" r="2.0" fill="#ff7038"/><circle cx="605.8" cy="126.4" r="1.1" fill="#ff7038"/><circle cx="554.7" cy="130.5" r="2.3" fill="#ff7038"/><circle cx="534.4" cy="118.8" r="1.2" fill="#ff7038"/><circle cx="550.5" cy="144.9" r="4.4" fill="#ff7038"/><circle cx="555.9" cy="125.5" r="0.9" fill="#ff7038"/><circle cx="546.4" cy="152.5" r="3.5" fill="#ff7038"/><circle cx="568.7" cy="110.2" r="1.2" fill="#ff7038"/><circle cx="542.4" cy="126.7" r="0.8" fill="#ff7038"/><circle cx="569.2" cy="139.1" r="2.2" fill="#ff7038"/><circle cx="564.9" cy="127.6" r="2.0" fill="#ff7038"/><circle cx="561.0" cy="175.7" r="1.2" fill="#ff7038"/><circle cx="579.9" cy="87.9" r="3.4" fill="#ff7038"/><circle cx="571.0" cy="132.0" r="4.1" fill="#ff7038"/><circle cx="547.8" cy="135.3" r="4.6" fill="#ff7038"/><circle cx="565.2" cy="122.4" r="1.5" fill="#ff7038"/><circle cx="550.1" cy="129.0" r="3.1" fill="#ff7038"/><circle cx="561.4" cy="120.9" r="1.4" fill="#ff7038"/><circle cx="568.0" cy="131.0" r="1.2" fill="#ff7038"/><circle cx="574.9" cy="103.3" r="1.4" fill="#ff7038"/><circle cx="556.3" cy="113.5" r="2.4" fill="#ff7038"/><circle cx="501.8" cy="116.9" r="0.8" fill="#ff7038"/><circle cx="560.3" cy="124.0" r="1.3" fill="#ff7038"/>
    <circle cx="666.6" cy="321.7" r="1.3" fill="#8fc3d8"/><circle cx="656.5" cy="327.3" r="0.7" fill="#8fc3d8"/><circle cx="640.2" cy="323.9" r="1.4" fill="#8fc3d8"/><circle cx="660.0" cy="330.0" r="0.7" fill="#8fc3d8"/><circle cx="658.7" cy="343.9" r="1.2" fill="#8fc3d8"/><circle cx="662.9" cy="333.1" r="0.7" fill="#8fc3d8"/><circle cx="657.9" cy="331.6" r="2.1" fill="#8fc3d8"/><circle cx="649.8" cy="328.0" r="1.8" fill="#8fc3d8"/><circle cx="651.6" cy="319.1" r="1.9" fill="#8fc3d8"/><circle cx="657.5" cy="325.2" r="3.0" fill="#8fc3d8"/><circle cx="664.8" cy="320.3" r="1.5" fill="#8fc3d8"/><circle cx="659.9" cy="330.0" r="0.7" fill="#8fc3d8"/><circle cx="655.9" cy="324.8" r="1.2" fill="#8fc3d8"/><circle cx="660.8" cy="323.8" r="1.9" fill="#8fc3d8"/><circle cx="661.0" cy="326.3" r="2.5" fill="#8fc3d8"/><circle cx="653.0" cy="312.6" r="1.0" fill="#8fc3d8"/>
    <circle cx="858.6" cy="468.1" r="1.6" fill="#ff7038"/><circle cx="866.8" cy="469.1" r="2.4" fill="#ff7038"/><circle cx="869.5" cy="474.0" r="1.2" fill="#ff7038"/><circle cx="865.7" cy="470.0" r="1.2" fill="#ff7038"/><circle cx="862.2" cy="458.4" r="3.0" fill="#ff7038"/><circle cx="865.9" cy="469.9" r="1.2" fill="#ff7038"/><circle cx="877.8" cy="468.9" r="3.7" fill="#ff7038"/><circle cx="863.0" cy="473.7" r="0.7" fill="#ff7038"/><circle cx="865.2" cy="475.4" r="3.6" fill="#ff7038"/><circle cx="866.1" cy="470.0" r="1.6" fill="#ff7038"/><circle cx="866.0" cy="470.1" r="0.7" fill="#ff7038"/><circle cx="856.3" cy="477.0" r="2.8" fill="#ff7038"/>
  </g>

  <!-- THE TAG -->
  <g transform="translate(84 96) rotate(-2)">
    <g transform="translate(7 8)" fill="#2a241d" opacity="0.85"><rect x="30" y="0" width="29" height="29"/><rect x="60" y="0" width="29" height="29"/><rect x="90" y="0" width="29" height="29"/><rect x="0" y="30" width="29" height="29"/><rect x="120" y="30" width="29" height="29"/><rect x="0" y="60" width="29" height="29"/><rect x="120" y="60" width="29" height="29"/><rect x="0" y="90" width="29" height="29"/><rect x="30" y="90" width="29" height="29"/><rect x="60" y="90" width="29" height="29"/><rect x="90" y="90" width="29" height="29"/><rect x="120" y="90" width="29" height="29"/><rect x="0" y="120" width="29" height="29"/><rect x="120" y="120" width="29" height="29"/><rect x="0" y="150" width="29" height="29"/><rect x="120" y="150" width="29" height="29"/><rect x="0" y="180" width="29" height="29"/><rect x="120" y="180" width="29" height="29"/><rect x="180" y="0" width="29" height="29"/><rect x="180" y="30" width="29" height="29"/><rect x="180" y="60" width="29" height="29"/><rect x="180" y="90" width="29" height="29"/><rect x="180" y="120" width="29" height="29"/><rect x="180" y="150" width="29" height="29"/><rect x="180" y="180" width="29" height="29"/><rect x="210" y="180" width="29" height="29"/><rect x="240" y="180" width="29" height="29"/><rect x="270" y="180" width="29" height="29"/><rect x="300" y="180" width="29" height="29"/><rect x="360" y="0" width="29" height="29"/><rect x="390" y="0" width="29" height="29"/><rect x="420" y="0" width="29" height="29"/><rect x="390" y="30" width="29" height="29"/><rect x="390" y="60" width="29" height="29"/><rect x="390" y="90" width="29" height="29"/><rect x="390" y="120" width="29" height="29"/><rect x="390" y="150" width="29" height="29"/><rect x="360" y="180" width="29" height="29"/><rect x="390" y="180" width="29" height="29"/><rect x="420" y="180" width="29" height="29"/></g>
    <g fill="#ff7038"><rect x="30" y="0" width="29" height="29"/><rect x="60" y="0" width="29" height="29"/><rect x="90" y="0" width="29" height="29"/><rect x="0" y="30" width="29" height="29"/><rect x="120" y="30" width="29" height="29"/><rect x="0" y="60" width="29" height="29"/><rect x="120" y="60" width="29" height="29"/><rect x="0" y="90" width="29" height="29"/><rect x="30" y="90" width="29" height="29"/><rect x="60" y="90" width="29" height="29"/><rect x="90" y="90" width="29" height="29"/><rect x="120" y="90" width="29" height="29"/><rect x="0" y="120" width="29" height="29"/><rect x="120" y="120" width="29" height="29"/><rect x="0" y="150" width="29" height="29"/><rect x="120" y="150" width="29" height="29"/><rect x="0" y="180" width="29" height="29"/><rect x="120" y="180" width="29" height="29"/><rect x="180" y="0" width="29" height="29"/><rect x="180" y="30" width="29" height="29"/><rect x="180" y="60" width="29" height="29"/><rect x="180" y="90" width="29" height="29"/><rect x="180" y="120" width="29" height="29"/><rect x="180" y="150" width="29" height="29"/><rect x="180" y="180" width="29" height="29"/><rect x="210" y="180" width="29" height="29"/><rect x="240" y="180" width="29" height="29"/><rect x="270" y="180" width="29" height="29"/><rect x="300" y="180" width="29" height="29"/><rect x="360" y="0" width="29" height="29"/><rect x="390" y="0" width="29" height="29"/><rect x="420" y="0" width="29" height="29"/><rect x="390" y="30" width="29" height="29"/><rect x="390" y="60" width="29" height="29"/><rect x="390" y="90" width="29" height="29"/><rect x="390" y="120" width="29" height="29"/><rect x="390" y="150" width="29" height="29"/><rect x="360" y="180" width="29" height="29"/><rect x="390" y="180" width="29" height="29"/><rect x="420" y="180" width="29" height="29"/></g>
    <rect x="132" y="208" width="5" height="26" fill="#ff7038"/><circle cx="134.5" cy="234" r="3.5999999999999996" fill="#ff7038"/><rect x="252" y="208" width="7" height="40" fill="#ff7038"/><circle cx="255.5" cy="248" r="5.04" fill="#ff7038"/><rect x="372" y="208" width="5" height="54" fill="#ff7038"/><circle cx="374.5" cy="262" r="3.5999999999999996" fill="#ff7038"/><circle class="fall f1" cx="255" cy="250" r="4" fill="#ff7038"/><circle class="fall f2" cx="375" cy="280" r="3.4" fill="#ff7038"/>
  </g>
  <g transform="translate(88 350) rotate(-2)">
    <g transform="translate(4 5)" fill="#8fc3d8" opacity="0.55"><rect x="0" y="0" width="15" height="15"/><rect x="64" y="0" width="15" height="15"/><rect x="0" y="16" width="15" height="15"/><rect x="48" y="16" width="15" height="15"/><rect x="0" y="32" width="15" height="15"/><rect x="32" y="32" width="15" height="15"/><rect x="0" y="48" width="15" height="15"/><rect x="16" y="48" width="15" height="15"/><rect x="0" y="64" width="15" height="15"/><rect x="32" y="64" width="15" height="15"/><rect x="0" y="80" width="15" height="15"/><rect x="48" y="80" width="15" height="15"/><rect x="0" y="96" width="15" height="15"/><rect x="64" y="96" width="15" height="15"/><rect x="96" y="0" width="15" height="15"/><rect x="160" y="0" width="15" height="15"/><rect x="96" y="16" width="15" height="15"/><rect x="160" y="16" width="15" height="15"/><rect x="96" y="32" width="15" height="15"/><rect x="160" y="32" width="15" height="15"/><rect x="96" y="48" width="15" height="15"/><rect x="112" y="48" width="15" height="15"/><rect x="128" y="48" width="15" height="15"/><rect x="144" y="48" width="15" height="15"/><rect x="160" y="48" width="15" height="15"/><rect x="96" y="64" width="15" height="15"/><rect x="160" y="64" width="15" height="15"/><rect x="96" y="80" width="15" height="15"/><rect x="160" y="80" width="15" height="15"/><rect x="96" y="96" width="15" height="15"/><rect x="160" y="96" width="15" height="15"/><rect x="208" y="0" width="15" height="15"/><rect x="224" y="0" width="15" height="15"/><rect x="240" y="0" width="15" height="15"/><rect x="192" y="16" width="15" height="15"/><rect x="256" y="16" width="15" height="15"/><rect x="192" y="32" width="15" height="15"/><rect x="256" y="32" width="15" height="15"/><rect x="192" y="48" width="15" height="15"/><rect x="208" y="48" width="15" height="15"/><rect x="224" y="48" width="15" height="15"/><rect x="240" y="48" width="15" height="15"/><rect x="256" y="48" width="15" height="15"/><rect x="192" y="64" width="15" height="15"/><rect x="256" y="64" width="15" height="15"/><rect x="192" y="80" width="15" height="15"/><rect x="256" y="80" width="15" height="15"/><rect x="192" y="96" width="15" height="15"/><rect x="256" y="96" width="15" height="15"/><rect x="288" y="0" width="15" height="15"/><rect x="288" y="16" width="15" height="15"/><rect x="288" y="32" width="15" height="15"/><rect x="288" y="48" width="15" height="15"/><rect x="288" y="64" width="15" height="15"/><rect x="288" y="80" width="15" height="15"/><rect x="288" y="96" width="15" height="15"/><rect x="304" y="96" width="15" height="15"/><rect x="320" y="96" width="15" height="15"/><rect x="336" y="96" width="15" height="15"/><rect x="352" y="96" width="15" height="15"/><rect x="384" y="0" width="15" height="15"/><rect x="400" y="0" width="15" height="15"/><rect x="416" y="0" width="15" height="15"/><rect x="400" y="16" width="15" height="15"/><rect x="400" y="32" width="15" height="15"/><rect x="400" y="48" width="15" height="15"/><rect x="400" y="64" width="15" height="15"/><rect x="400" y="80" width="15" height="15"/><rect x="384" y="96" width="15" height="15"/><rect x="400" y="96" width="15" height="15"/><rect x="416" y="96" width="15" height="15"/><rect x="448" y="0" width="15" height="15"/><rect x="448" y="16" width="15" height="15"/><rect x="448" y="32" width="15" height="15"/><rect x="448" y="48" width="15" height="15"/><rect x="448" y="64" width="15" height="15"/><rect x="448" y="80" width="15" height="15"/><rect x="448" y="96" width="15" height="15"/><rect x="464" y="96" width="15" height="15"/><rect x="480" y="96" width="15" height="15"/><rect x="496" y="96" width="15" height="15"/><rect x="512" y="96" width="15" height="15"/><rect x="544" y="0" width="15" height="15"/><rect x="560" y="0" width="15" height="15"/><rect x="576" y="0" width="15" height="15"/><rect x="560" y="16" width="15" height="15"/><rect x="560" y="32" width="15" height="15"/><rect x="560" y="48" width="15" height="15"/><rect x="560" y="64" width="15" height="15"/><rect x="560" y="80" width="15" height="15"/><rect x="544" y="96" width="15" height="15"/><rect x="560" y="96" width="15" height="15"/><rect x="576" y="96" width="15" height="15"/></g>
    <g fill="#1b1815"><rect x="0" y="0" width="15" height="15"/><rect x="64" y="0" width="15" height="15"/><rect x="0" y="16" width="15" height="15"/><rect x="48" y="16" width="15" height="15"/><rect x="0" y="32" width="15" height="15"/><rect x="32" y="32" width="15" height="15"/><rect x="0" y="48" width="15" height="15"/><rect x="16" y="48" width="15" height="15"/><rect x="0" y="64" width="15" height="15"/><rect x="32" y="64" width="15" height="15"/><rect x="0" y="80" width="15" height="15"/><rect x="48" y="80" width="15" height="15"/><rect x="0" y="96" width="15" height="15"/><rect x="64" y="96" width="15" height="15"/><rect x="96" y="0" width="15" height="15"/><rect x="160" y="0" width="15" height="15"/><rect x="96" y="16" width="15" height="15"/><rect x="160" y="16" width="15" height="15"/><rect x="96" y="32" width="15" height="15"/><rect x="160" y="32" width="15" height="15"/><rect x="96" y="48" width="15" height="15"/><rect x="112" y="48" width="15" height="15"/><rect x="128" y="48" width="15" height="15"/><rect x="144" y="48" width="15" height="15"/><rect x="160" y="48" width="15" height="15"/><rect x="96" y="64" width="15" height="15"/><rect x="160" y="64" width="15" height="15"/><rect x="96" y="80" width="15" height="15"/><rect x="160" y="80" width="15" height="15"/><rect x="96" y="96" width="15" height="15"/><rect x="160" y="96" width="15" height="15"/><rect x="208" y="0" width="15" height="15"/><rect x="224" y="0" width="15" height="15"/><rect x="240" y="0" width="15" height="15"/><rect x="192" y="16" width="15" height="15"/><rect x="256" y="16" width="15" height="15"/><rect x="192" y="32" width="15" height="15"/><rect x="256" y="32" width="15" height="15"/><rect x="192" y="48" width="15" height="15"/><rect x="208" y="48" width="15" height="15"/><rect x="224" y="48" width="15" height="15"/><rect x="240" y="48" width="15" height="15"/><rect x="256" y="48" width="15" height="15"/><rect x="192" y="64" width="15" height="15"/><rect x="256" y="64" width="15" height="15"/><rect x="192" y="80" width="15" height="15"/><rect x="256" y="80" width="15" height="15"/><rect x="192" y="96" width="15" height="15"/><rect x="256" y="96" width="15" height="15"/><rect x="288" y="0" width="15" height="15"/><rect x="288" y="16" width="15" height="15"/><rect x="288" y="32" width="15" height="15"/><rect x="288" y="48" width="15" height="15"/><rect x="288" y="64" width="15" height="15"/><rect x="288" y="80" width="15" height="15"/><rect x="288" y="96" width="15" height="15"/><rect x="304" y="96" width="15" height="15"/><rect x="320" y="96" width="15" height="15"/><rect x="336" y="96" width="15" height="15"/><rect x="352" y="96" width="15" height="15"/><rect x="384" y="0" width="15" height="15"/><rect x="400" y="0" width="15" height="15"/><rect x="416" y="0" width="15" height="15"/><rect x="400" y="16" width="15" height="15"/><rect x="400" y="32" width="15" height="15"/><rect x="400" y="48" width="15" height="15"/><rect x="400" y="64" width="15" height="15"/><rect x="400" y="80" width="15" height="15"/><rect x="384" y="96" width="15" height="15"/><rect x="400" y="96" width="15" height="15"/><rect x="416" y="96" width="15" height="15"/><rect x="448" y="0" width="15" height="15"/><rect x="448" y="16" width="15" height="15"/><rect x="448" y="32" width="15" height="15"/><rect x="448" y="48" width="15" height="15"/><rect x="448" y="64" width="15" height="15"/><rect x="448" y="80" width="15" height="15"/><rect x="448" y="96" width="15" height="15"/><rect x="464" y="96" width="15" height="15"/><rect x="480" y="96" width="15" height="15"/><rect x="496" y="96" width="15" height="15"/><rect x="512" y="96" width="15" height="15"/><rect x="544" y="0" width="15" height="15"/><rect x="560" y="0" width="15" height="15"/><rect x="576" y="0" width="15" height="15"/><rect x="560" y="16" width="15" height="15"/><rect x="560" y="32" width="15" height="15"/><rect x="560" y="48" width="15" height="15"/><rect x="560" y="64" width="15" height="15"/><rect x="560" y="80" width="15" height="15"/><rect x="544" y="96" width="15" height="15"/><rect x="560" y="96" width="15" height="15"/><rect x="576" y="96" width="15" height="15"/></g>
  </g>

  <!-- wall furniture: QR paste-up, spray can, arrow to the plate below -->
  <g transform="translate(936 92) rotate(2.5)">
      <rect x="-7" y="-7" width="154" height="180" fill="#2a241d" opacity="0.45"/>
      <rect x="-4" y="-4" width="148" height="174" fill="#efeae3"/>
      <g fill="#1b1815"><rect x="12" y="12" width="4" height="4"/><rect x="16" y="12" width="4" height="4"/><rect x="20" y="12" width="4" height="4"/><rect x="24" y="12" width="4" height="4"/><rect x="28" y="12" width="4" height="4"/><rect x="32" y="12" width="4" height="4"/><rect x="36" y="12" width="4" height="4"/><rect x="48" y="12" width="4" height="4"/><rect x="56" y="12" width="4" height="4"/><rect x="60" y="12" width="4" height="4"/><rect x="64" y="12" width="4" height="4"/><rect x="68" y="12" width="4" height="4"/><rect x="72" y="12" width="4" height="4"/><rect x="88" y="12" width="4" height="4"/><rect x="100" y="12" width="4" height="4"/><rect x="104" y="12" width="4" height="4"/><rect x="108" y="12" width="4" height="4"/><rect x="112" y="12" width="4" height="4"/><rect x="116" y="12" width="4" height="4"/><rect x="120" y="12" width="4" height="4"/><rect x="124" y="12" width="4" height="4"/><rect x="12" y="16" width="4" height="4"/><rect x="36" y="16" width="4" height="4"/><rect x="44" y="16" width="4" height="4"/><rect x="52" y="16" width="4" height="4"/><rect x="56" y="16" width="4" height="4"/><rect x="60" y="16" width="4" height="4"/><rect x="64" y="16" width="4" height="4"/><rect x="68" y="16" width="4" height="4"/><rect x="72" y="16" width="4" height="4"/><rect x="76" y="16" width="4" height="4"/><rect x="80" y="16" width="4" height="4"/><rect x="84" y="16" width="4" height="4"/><rect x="88" y="16" width="4" height="4"/><rect x="92" y="16" width="4" height="4"/><rect x="100" y="16" width="4" height="4"/><rect x="124" y="16" width="4" height="4"/><rect x="12" y="20" width="4" height="4"/><rect x="20" y="20" width="4" height="4"/><rect x="24" y="20" width="4" height="4"/><rect x="28" y="20" width="4" height="4"/><rect x="36" y="20" width="4" height="4"/><rect x="56" y="20" width="4" height="4"/><rect x="60" y="20" width="4" height="4"/><rect x="68" y="20" width="4" height="4"/><rect x="76" y="20" width="4" height="4"/><rect x="84" y="20" width="4" height="4"/><rect x="92" y="20" width="4" height="4"/><rect x="100" y="20" width="4" height="4"/><rect x="108" y="20" width="4" height="4"/><rect x="112" y="20" width="4" height="4"/><rect x="116" y="20" width="4" height="4"/><rect x="124" y="20" width="4" height="4"/><rect x="12" y="24" width="4" height="4"/><rect x="20" y="24" width="4" height="4"/><rect x="24" y="24" width="4" height="4"/><rect x="28" y="24" width="4" height="4"/><rect x="36" y="24" width="4" height="4"/><rect x="48" y="24" width="4" height="4"/><rect x="68" y="24" width="4" height="4"/><rect x="72" y="24" width="4" height="4"/><rect x="84" y="24" width="4" height="4"/><rect x="100" y="24" width="4" height="4"/><rect x="108" y="24" width="4" height="4"/><rect x="112" y="24" width="4" height="4"/><rect x="116" y="24" width="4" height="4"/><rect x="124" y="24" width="4" height="4"/><rect x="12" y="28" width="4" height="4"/><rect x="20" y="28" width="4" height="4"/><rect x="24" y="28" width="4" height="4"/><rect x="28" y="28" width="4" height="4"/><rect x="36" y="28" width="4" height="4"/><rect x="44" y="28" width="4" height="4"/><rect x="48" y="28" width="4" height="4"/><rect x="52" y="28" width="4" height="4"/><rect x="56" y="28" width="4" height="4"/><rect x="60" y="28" width="4" height="4"/><rect x="64" y="28" width="4" height="4"/><rect x="68" y="28" width="4" height="4"/><rect x="72" y="28" width="4" height="4"/><rect x="80" y="28" width="4" height="4"/><rect x="84" y="28" width="4" height="4"/><rect x="88" y="28" width="4" height="4"/><rect x="100" y="28" width="4" height="4"/><rect x="108" y="28" width="4" height="4"/><rect x="112" y="28" width="4" height="4"/><rect x="116" y="28" width="4" height="4"/><rect x="124" y="28" width="4" height="4"/><rect x="12" y="32" width="4" height="4"/><rect x="36" y="32" width="4" height="4"/><rect x="48" y="32" width="4" height="4"/><rect x="56" y="32" width="4" height="4"/><rect x="60" y="32" width="4" height="4"/><rect x="64" y="32" width="4" height="4"/><rect x="72" y="32" width="4" height="4"/><rect x="80" y="32" width="4" height="4"/><rect x="88" y="32" width="4" height="4"/><rect x="92" y="32" width="4" height="4"/><rect x="100" y="32" width="4" height="4"/><rect x="124" y="32" width="4" height="4"/><rect x="12" y="36" width="4" height="4"/><rect x="16" y="36" width="4" height="4"/><rect x="20" y="36" width="4" height="4"/><rect x="24" y="36" width="4" height="4"/><rect x="28" y="36" width="4" height="4"/><rect x="32" y="36" width="4" height="4"/><rect x="36" y="36" width="4" height="4"/><rect x="44" y="36" width="4" height="4"/><rect x="52" y="36" width="4" height="4"/><rect x="60" y="36" width="4" height="4"/><rect x="68" y="36" width="4" height="4"/><rect x="76" y="36" width="4" height="4"/><rect x="84" y="36" width="4" height="4"/><rect x="92" y="36" width="4" height="4"/><rect x="100" y="36" width="4" height="4"/><rect x="104" y="36" width="4" height="4"/><rect x="108" y="36" width="4" height="4"/><rect x="112" y="36" width="4" height="4"/><rect x="116" y="36" width="4" height="4"/><rect x="120" y="36" width="4" height="4"/><rect x="124" y="36" width="4" height="4"/><rect x="48" y="40" width="4" height="4"/><rect x="52" y="40" width="4" height="4"/><rect x="64" y="40" width="4" height="4"/><rect x="68" y="40" width="4" height="4"/><rect x="72" y="40" width="4" height="4"/><rect x="80" y="40" width="4" height="4"/><rect x="92" y="40" width="4" height="4"/><rect x="12" y="44" width="4" height="4"/><rect x="20" y="44" width="4" height="4"/><rect x="28" y="44" width="4" height="4"/><rect x="36" y="44" width="4" height="4"/><rect x="48" y="44" width="4" height="4"/><rect x="52" y="44" width="4" height="4"/><rect x="56" y="44" width="4" height="4"/><rect x="60" y="44" width="4" height="4"/><rect x="64" y="44" width="4" height="4"/><rect x="72" y="44" width="4" height="4"/><rect x="76" y="44" width="4" height="4"/><rect x="80" y="44" width="4" height="4"/><rect x="92" y="44" width="4" height="4"/><rect x="108" y="44" width="4" height="4"/><rect x="120" y="44" width="4" height="4"/><rect x="12" y="48" width="4" height="4"/><rect x="16" y="48" width="4" height="4"/><rect x="24" y="48" width="4" height="4"/><rect x="28" y="48" width="4" height="4"/><rect x="56" y="48" width="4" height="4"/><rect x="60" y="48" width="4" height="4"/><rect x="72" y="48" width="4" height="4"/><rect x="76" y="48" width="4" height="4"/><rect x="80" y="48" width="4" height="4"/><rect x="84" y="48" width="4" height="4"/><rect x="92" y="48" width="4" height="4"/><rect x="96" y="48" width="4" height="4"/><rect x="100" y="48" width="4" height="4"/><rect x="112" y="48" width="4" height="4"/><rect x="124" y="48" width="4" height="4"/><rect x="12" y="52" width="4" height="4"/><rect x="20" y="52" width="4" height="4"/><rect x="32" y="52" width="4" height="4"/><rect x="36" y="52" width="4" height="4"/><rect x="40" y="52" width="4" height="4"/><rect x="48" y="52" width="4" height="4"/><rect x="52" y="52" width="4" height="4"/><rect x="92" y="52" width="4" height="4"/><rect x="104" y="52" width="4" height="4"/><rect x="116" y="52" width="4" height="4"/><rect x="120" y="52" width="4" height="4"/><rect x="124" y="52" width="4" height="4"/><rect x="16" y="56" width="4" height="4"/><rect x="28" y="56" width="4" height="4"/><rect x="40" y="56" width="4" height="4"/><rect x="48" y="56" width="4" height="4"/><rect x="52" y="56" width="4" height="4"/><rect x="56" y="56" width="4" height="4"/><rect x="64" y="56" width="4" height="4"/><rect x="80" y="56" width="4" height="4"/><rect x="84" y="56" width="4" height="4"/><rect x="92" y="56" width="4" height="4"/><rect x="96" y="56" width="4" height="4"/><rect x="104" y="56" width="4" height="4"/><rect x="108" y="56" width="4" height="4"/><rect x="120" y="56" width="4" height="4"/><rect x="12" y="60" width="4" height="4"/><rect x="20" y="60" width="4" height="4"/><rect x="24" y="60" width="4" height="4"/><rect x="28" y="60" width="4" height="4"/><rect x="32" y="60" width="4" height="4"/><rect x="36" y="60" width="4" height="4"/><rect x="44" y="60" width="4" height="4"/><rect x="60" y="60" width="4" height="4"/><rect x="64" y="60" width="4" height="4"/><rect x="72" y="60" width="4" height="4"/><rect x="76" y="60" width="4" height="4"/><rect x="80" y="60" width="4" height="4"/><rect x="88" y="60" width="4" height="4"/><rect x="92" y="60" width="4" height="4"/><rect x="96" y="60" width="4" height="4"/><rect x="100" y="60" width="4" height="4"/><rect x="112" y="60" width="4" height="4"/><rect x="120" y="60" width="4" height="4"/><rect x="124" y="60" width="4" height="4"/><rect x="12" y="64" width="4" height="4"/><rect x="20" y="64" width="4" height="4"/><rect x="24" y="64" width="4" height="4"/><rect x="32" y="64" width="4" height="4"/><rect x="40" y="64" width="4" height="4"/><rect x="52" y="64" width="4" height="4"/><rect x="72" y="64" width="4" height="4"/><rect x="76" y="64" width="4" height="4"/><rect x="80" y="64" width="4" height="4"/><rect x="96" y="64" width="4" height="4"/><rect x="100" y="64" width="4" height="4"/><rect x="112" y="64" width="4" height="4"/><rect x="124" y="64" width="4" height="4"/><rect x="12" y="68" width="4" height="4"/><rect x="20" y="68" width="4" height="4"/><rect x="24" y="68" width="4" height="4"/><rect x="28" y="68" width="4" height="4"/><rect x="32" y="68" width="4" height="4"/><rect x="36" y="68" width="4" height="4"/><rect x="40" y="68" width="4" height="4"/><rect x="44" y="68" width="4" height="4"/><rect x="48" y="68" width="4" height="4"/><rect x="52" y="68" width="4" height="4"/><rect x="56" y="68" width="4" height="4"/><rect x="68" y="68" width="4" height="4"/><rect x="80" y="68" width="4" height="4"/><rect x="84" y="68" width="4" height="4"/><rect x="92" y="68" width="4" height="4"/><rect x="100" y="68" width="4" height="4"/><rect x="104" y="68" width="4" height="4"/><rect x="108" y="68" width="4" height="4"/><rect x="112" y="68" width="4" height="4"/><rect x="120" y="68" width="4" height="4"/><rect x="124" y="68" width="4" height="4"/><rect x="16" y="72" width="4" height="4"/><rect x="20" y="72" width="4" height="4"/><rect x="24" y="72" width="4" height="4"/><rect x="28" y="72" width="4" height="4"/><rect x="44" y="72" width="4" height="4"/><rect x="48" y="72" width="4" height="4"/><rect x="56" y="72" width="4" height="4"/><rect x="60" y="72" width="4" height="4"/><rect x="64" y="72" width="4" height="4"/><rect x="68" y="72" width="4" height="4"/><rect x="72" y="72" width="4" height="4"/><rect x="80" y="72" width="4" height="4"/><rect x="88" y="72" width="4" height="4"/><rect x="92" y="72" width="4" height="4"/><rect x="104" y="72" width="4" height="4"/><rect x="108" y="72" width="4" height="4"/><rect x="112" y="72" width="4" height="4"/><rect x="120" y="72" width="4" height="4"/><rect x="16" y="76" width="4" height="4"/><rect x="24" y="76" width="4" height="4"/><rect x="36" y="76" width="4" height="4"/><rect x="40" y="76" width="4" height="4"/><rect x="44" y="76" width="4" height="4"/><rect x="52" y="76" width="4" height="4"/><rect x="56" y="76" width="4" height="4"/><rect x="72" y="76" width="4" height="4"/><rect x="76" y="76" width="4" height="4"/><rect x="80" y="76" width="4" height="4"/><rect x="84" y="76" width="4" height="4"/><rect x="96" y="76" width="4" height="4"/><rect x="100" y="76" width="4" height="4"/><rect x="112" y="76" width="4" height="4"/><rect x="120" y="76" width="4" height="4"/><rect x="124" y="76" width="4" height="4"/><rect x="16" y="80" width="4" height="4"/><rect x="20" y="80" width="4" height="4"/><rect x="24" y="80" width="4" height="4"/><rect x="32" y="80" width="4" height="4"/><rect x="40" y="80" width="4" height="4"/><rect x="56" y="80" width="4" height="4"/><rect x="64" y="80" width="4" height="4"/><rect x="68" y="80" width="4" height="4"/><rect x="76" y="80" width="4" height="4"/><rect x="92" y="80" width="4" height="4"/><rect x="96" y="80" width="4" height="4"/><rect x="100" y="80" width="4" height="4"/><rect x="112" y="80" width="4" height="4"/><rect x="116" y="80" width="4" height="4"/><rect x="124" y="80" width="4" height="4"/><rect x="12" y="84" width="4" height="4"/><rect x="20" y="84" width="4" height="4"/><rect x="24" y="84" width="4" height="4"/><rect x="28" y="84" width="4" height="4"/><rect x="36" y="84" width="4" height="4"/><rect x="40" y="84" width="4" height="4"/><rect x="44" y="84" width="4" height="4"/><rect x="52" y="84" width="4" height="4"/><rect x="76" y="84" width="4" height="4"/><rect x="80" y="84" width="4" height="4"/><rect x="96" y="84" width="4" height="4"/><rect x="108" y="84" width="4" height="4"/><rect x="120" y="84" width="4" height="4"/><rect x="124" y="84" width="4" height="4"/><rect x="16" y="88" width="4" height="4"/><rect x="20" y="88" width="4" height="4"/><rect x="24" y="88" width="4" height="4"/><rect x="32" y="88" width="4" height="4"/><rect x="44" y="88" width="4" height="4"/><rect x="52" y="88" width="4" height="4"/><rect x="60" y="88" width="4" height="4"/><rect x="64" y="88" width="4" height="4"/><rect x="72" y="88" width="4" height="4"/><rect x="76" y="88" width="4" height="4"/><rect x="80" y="88" width="4" height="4"/><rect x="88" y="88" width="4" height="4"/><rect x="96" y="88" width="4" height="4"/><rect x="108" y="88" width="4" height="4"/><rect x="112" y="88" width="4" height="4"/><rect x="120" y="88" width="4" height="4"/><rect x="12" y="92" width="4" height="4"/><rect x="20" y="92" width="4" height="4"/><rect x="24" y="92" width="4" height="4"/><rect x="28" y="92" width="4" height="4"/><rect x="36" y="92" width="4" height="4"/><rect x="44" y="92" width="4" height="4"/><rect x="48" y="92" width="4" height="4"/><rect x="52" y="92" width="4" height="4"/><rect x="56" y="92" width="4" height="4"/><rect x="64" y="92" width="4" height="4"/><rect x="68" y="92" width="4" height="4"/><rect x="72" y="92" width="4" height="4"/><rect x="76" y="92" width="4" height="4"/><rect x="80" y="92" width="4" height="4"/><rect x="88" y="92" width="4" height="4"/><rect x="92" y="92" width="4" height="4"/><rect x="96" y="92" width="4" height="4"/><rect x="100" y="92" width="4" height="4"/><rect x="104" y="92" width="4" height="4"/><rect x="108" y="92" width="4" height="4"/><rect x="44" y="96" width="4" height="4"/><rect x="52" y="96" width="4" height="4"/><rect x="56" y="96" width="4" height="4"/><rect x="60" y="96" width="4" height="4"/><rect x="76" y="96" width="4" height="4"/><rect x="88" y="96" width="4" height="4"/><rect x="92" y="96" width="4" height="4"/><rect x="108" y="96" width="4" height="4"/><rect x="116" y="96" width="4" height="4"/><rect x="120" y="96" width="4" height="4"/><rect x="124" y="96" width="4" height="4"/><rect x="12" y="100" width="4" height="4"/><rect x="16" y="100" width="4" height="4"/><rect x="20" y="100" width="4" height="4"/><rect x="24" y="100" width="4" height="4"/><rect x="28" y="100" width="4" height="4"/><rect x="32" y="100" width="4" height="4"/><rect x="36" y="100" width="4" height="4"/><rect x="52" y="100" width="4" height="4"/><rect x="56" y="100" width="4" height="4"/><rect x="64" y="100" width="4" height="4"/><rect x="84" y="100" width="4" height="4"/><rect x="88" y="100" width="4" height="4"/><rect x="92" y="100" width="4" height="4"/><rect x="100" y="100" width="4" height="4"/><rect x="108" y="100" width="4" height="4"/><rect x="112" y="100" width="4" height="4"/><rect x="120" y="100" width="4" height="4"/><rect x="124" y="100" width="4" height="4"/><rect x="12" y="104" width="4" height="4"/><rect x="36" y="104" width="4" height="4"/><rect x="52" y="104" width="4" height="4"/><rect x="56" y="104" width="4" height="4"/><rect x="60" y="104" width="4" height="4"/><rect x="64" y="104" width="4" height="4"/><rect x="68" y="104" width="4" height="4"/><rect x="72" y="104" width="4" height="4"/><rect x="80" y="104" width="4" height="4"/><rect x="84" y="104" width="4" height="4"/><rect x="92" y="104" width="4" height="4"/><rect x="108" y="104" width="4" height="4"/><rect x="112" y="104" width="4" height="4"/><rect x="120" y="104" width="4" height="4"/><rect x="124" y="104" width="4" height="4"/><rect x="12" y="108" width="4" height="4"/><rect x="20" y="108" width="4" height="4"/><rect x="24" y="108" width="4" height="4"/><rect x="28" y="108" width="4" height="4"/><rect x="36" y="108" width="4" height="4"/><rect x="44" y="108" width="4" height="4"/><rect x="48" y="108" width="4" height="4"/><rect x="52" y="108" width="4" height="4"/><rect x="68" y="108" width="4" height="4"/><rect x="76" y="108" width="4" height="4"/><rect x="80" y="108" width="4" height="4"/><rect x="92" y="108" width="4" height="4"/><rect x="96" y="108" width="4" height="4"/><rect x="100" y="108" width="4" height="4"/><rect x="104" y="108" width="4" height="4"/><rect x="108" y="108" width="4" height="4"/><rect x="12" y="112" width="4" height="4"/><rect x="20" y="112" width="4" height="4"/><rect x="24" y="112" width="4" height="4"/><rect x="28" y="112" width="4" height="4"/><rect x="36" y="112" width="4" height="4"/><rect x="48" y="112" width="4" height="4"/><rect x="60" y="112" width="4" height="4"/><rect x="64" y="112" width="4" height="4"/><rect x="72" y="112" width="4" height="4"/><rect x="76" y="112" width="4" height="4"/><rect x="88" y="112" width="4" height="4"/><rect x="104" y="112" width="4" height="4"/><rect x="108" y="112" width="4" height="4"/><rect x="116" y="112" width="4" height="4"/><rect x="120" y="112" width="4" height="4"/><rect x="124" y="112" width="4" height="4"/><rect x="12" y="116" width="4" height="4"/><rect x="20" y="116" width="4" height="4"/><rect x="24" y="116" width="4" height="4"/><rect x="28" y="116" width="4" height="4"/><rect x="36" y="116" width="4" height="4"/><rect x="44" y="116" width="4" height="4"/><rect x="48" y="116" width="4" height="4"/><rect x="52" y="116" width="4" height="4"/><rect x="56" y="116" width="4" height="4"/><rect x="64" y="116" width="4" height="4"/><rect x="68" y="116" width="4" height="4"/><rect x="80" y="116" width="4" height="4"/><rect x="88" y="116" width="4" height="4"/><rect x="104" y="116" width="4" height="4"/><rect x="108" y="116" width="4" height="4"/><rect x="112" y="116" width="4" height="4"/><rect x="124" y="116" width="4" height="4"/><rect x="12" y="120" width="4" height="4"/><rect x="36" y="120" width="4" height="4"/><rect x="52" y="120" width="4" height="4"/><rect x="76" y="120" width="4" height="4"/><rect x="80" y="120" width="4" height="4"/><rect x="84" y="120" width="4" height="4"/><rect x="88" y="120" width="4" height="4"/><rect x="92" y="120" width="4" height="4"/><rect x="96" y="120" width="4" height="4"/><rect x="100" y="120" width="4" height="4"/><rect x="120" y="120" width="4" height="4"/><rect x="12" y="124" width="4" height="4"/><rect x="16" y="124" width="4" height="4"/><rect x="20" y="124" width="4" height="4"/><rect x="24" y="124" width="4" height="4"/><rect x="28" y="124" width="4" height="4"/><rect x="32" y="124" width="4" height="4"/><rect x="36" y="124" width="4" height="4"/><rect x="44" y="124" width="4" height="4"/><rect x="48" y="124" width="4" height="4"/><rect x="52" y="124" width="4" height="4"/><rect x="60" y="124" width="4" height="4"/><rect x="72" y="124" width="4" height="4"/><rect x="76" y="124" width="4" height="4"/><rect x="80" y="124" width="4" height="4"/><rect x="84" y="124" width="4" height="4"/><rect x="88" y="124" width="4" height="4"/><rect x="92" y="124" width="4" height="4"/><rect x="96" y="124" width="4" height="4"/><rect x="100" y="124" width="4" height="4"/><rect x="108" y="124" width="4" height="4"/><rect x="120" y="124" width="4" height="4"/><rect x="124" y="124" width="4" height="4"/></g>
      <text x="70" y="158" text-anchor="middle" font-family="ui-monospace, 'Cascadia Mono', 'SF Mono', Consolas, monospace" font-weight="700" font-size="13" letter-spacing="3" fill="#1b1815">SCAN TO ENTER</text>
    </g>
  <g transform="translate(956 366) rotate(7)">
      <rect x="-14" y="-13" width="74" height="120" fill="#2a241d" opacity="0.4"/>
      <rect x="-11" y="-10" width="68" height="114" fill="#efeae3"/>
      <g transform="translate(1 2)"><rect x="18" y="0" width="8" height="8" fill="#1b1815"/><rect x="9" y="9" width="8" height="8" fill="#1b1815"/><rect x="18" y="9" width="8" height="8" fill="#1b1815"/><rect x="27" y="9" width="8" height="8" fill="#1b1815"/><rect x="0" y="18" width="8" height="8" fill="#8fc3d8"/><rect x="9" y="18" width="8" height="8" fill="#8fc3d8"/><rect x="18" y="18" width="8" height="8" fill="#8fc3d8"/><rect x="27" y="18" width="8" height="8" fill="#8fc3d8"/><rect x="36" y="18" width="8" height="8" fill="#8fc3d8"/><rect x="0" y="27" width="8" height="8" fill="#8fc3d8"/><rect x="9" y="27" width="8" height="8" fill="#8fc3d8"/><rect x="18" y="27" width="8" height="8" fill="#8fc3d8"/><rect x="27" y="27" width="8" height="8" fill="#8fc3d8"/><rect x="36" y="27" width="8" height="8" fill="#8fc3d8"/><rect x="0" y="36" width="8" height="8" fill="#efeae3"/><rect x="9" y="36" width="8" height="8" fill="#efeae3"/><rect x="18" y="36" width="8" height="8" fill="#efeae3"/><rect x="27" y="36" width="8" height="8" fill="#efeae3"/><rect x="36" y="36" width="8" height="8" fill="#efeae3"/><rect x="0" y="45" width="8" height="8" fill="#efeae3"/><rect x="9" y="45" width="8" height="8" fill="#efeae3"/><rect x="18" y="45" width="8" height="8" fill="#efeae3"/><rect x="27" y="45" width="8" height="8" fill="#efeae3"/><rect x="36" y="45" width="8" height="8" fill="#efeae3"/><rect x="0" y="54" width="8" height="8" fill="#8fc3d8"/><rect x="9" y="54" width="8" height="8" fill="#8fc3d8"/><rect x="18" y="54" width="8" height="8" fill="#8fc3d8"/><rect x="27" y="54" width="8" height="8" fill="#8fc3d8"/><rect x="36" y="54" width="8" height="8" fill="#8fc3d8"/><rect x="0" y="63" width="8" height="8" fill="#8fc3d8"/><rect x="9" y="63" width="8" height="8" fill="#8fc3d8"/><rect x="18" y="63" width="8" height="8" fill="#8fc3d8"/><rect x="27" y="63" width="8" height="8" fill="#8fc3d8"/><rect x="36" y="63" width="8" height="8" fill="#8fc3d8"/><rect x="0" y="72" width="8" height="8" fill="#8fc3d8"/><rect x="9" y="72" width="8" height="8" fill="#8fc3d8"/><rect x="18" y="72" width="8" height="8" fill="#8fc3d8"/><rect x="27" y="72" width="8" height="8" fill="#8fc3d8"/><rect x="36" y="72" width="8" height="8" fill="#8fc3d8"/><circle cx="-10" cy="-6" r="3" fill="#ff7038"/><circle cx="-20" cy="-14" r="2.2" fill="#ff7038"/><circle cx="-28" cy="-24" r="1.6" fill="#ff7038"/></g>
      <text x="23" y="97" text-anchor="middle" font-family="ui-monospace, 'Cascadia Mono', 'SF Mono', Consolas, monospace" font-size="10" letter-spacing="2" fill="#1b1815">FRESH</text>
    </g>
  <g transform="translate(1082 350) rotate(-6)">
      <rect x="-12" y="-12" width="86" height="77" fill="#2a241d" opacity="0.4"/>
      <rect x="-9" y="-9" width="80" height="71" fill="#efeae3"/>
      <rect x="18" y="0" width="8" height="8" fill="#ff7038"/><rect x="27" y="0" width="8" height="8" fill="#ff7038"/><rect x="36" y="0" width="8" height="8" fill="#ff7038"/><rect x="18" y="9" width="8" height="8" fill="#ff7038"/><rect x="27" y="9" width="8" height="8" fill="#ff7038"/><rect x="36" y="9" width="8" height="8" fill="#ff7038"/><rect x="18" y="18" width="8" height="8" fill="#ff7038"/><rect x="27" y="18" width="8" height="8" fill="#ff7038"/><rect x="36" y="18" width="8" height="8" fill="#ff7038"/><rect x="0" y="27" width="8" height="8" fill="#ff7038"/><rect x="9" y="27" width="8" height="8" fill="#ff7038"/><rect x="18" y="27" width="8" height="8" fill="#ff7038"/><rect x="27" y="27" width="8" height="8" fill="#ff7038"/><rect x="36" y="27" width="8" height="8" fill="#ff7038"/><rect x="45" y="27" width="8" height="8" fill="#ff7038"/><rect x="54" y="27" width="8" height="8" fill="#ff7038"/><rect x="9" y="36" width="8" height="8" fill="#ff7038"/><rect x="18" y="36" width="8" height="8" fill="#ff7038"/><rect x="27" y="36" width="8" height="8" fill="#ff7038"/><rect x="36" y="36" width="8" height="8" fill="#ff7038"/><rect x="45" y="36" width="8" height="8" fill="#ff7038"/><rect x="18" y="45" width="8" height="8" fill="#ff7038"/><rect x="27" y="45" width="8" height="8" fill="#ff7038"/><rect x="36" y="45" width="8" height="8" fill="#ff7038"/>
    </g>

  <!-- wet paint tape -->
  <g transform="translate(700 52) rotate(-4)">
    <rect width="170" height="34" fill="#1b1815" opacity="0.92"/>
    <text x="85" y="23" text-anchor="middle" font-family="ui-monospace, 'Cascadia Mono', 'SF Mono', Consolas, monospace" font-weight="700" font-size="15" letter-spacing="4" fill="#ff7038">WET PAINT</text>
  </g>

  <!-- live record lamp -->
  <g font-family="ui-monospace, 'Cascadia Mono', 'SF Mono', Consolas, monospace" font-size="13" letter-spacing="3">
    <circle class="blink" cx="52" cy="58" r="5" fill="#ff7038"/>
    <text x="68" y="63" fill="#1b1815" opacity="0.8">LIVE RECORD</text>
  </g>

  <!-- bottom registration band: stencil, barcode, plaque chip -->
  <text x="88" y="522" font-family="ui-monospace, 'Cascadia Mono', 'SF Mono', Consolas, monospace" font-size="14" letter-spacing="5" textLength="121" fill="#6f665a">PORTFOLIO</text><rect x="225" y="506" width="5" height="5" fill="#ff7038"/><rect x="232" y="513" width="5" height="5" fill="#ff7038"/><text x="253" y="522" font-family="ui-monospace, 'Cascadia Mono', 'SF Mono', Consolas, monospace" font-size="14" letter-spacing="5" textLength="188" fill="#6f665a">DIGITAL GARDEN</text><rect x="457" y="506" width="5" height="5" fill="#ff7038"/><rect x="464" y="513" width="5" height="5" fill="#ff7038"/><text x="485" y="522" font-family="ui-monospace, 'Cascadia Mono', 'SF Mono', Consolas, monospace" font-size="14" letter-spacing="5" textLength="147" fill="#6f665a">LIFE RECORD</text>
  <g transform="translate(742 496)"><rect x="0" width="4" height="26" fill="#1b1815" opacity="0.75"/><rect x="6" width="1" height="26" fill="#1b1815" opacity="0.75"/><rect x="9" width="2" height="26" fill="#1b1815" opacity="0.75"/><rect x="16" width="4" height="26" fill="#1b1815" opacity="0.75"/><rect x="25" width="1" height="26" fill="#1b1815" opacity="0.75"/><rect x="28" width="2" height="26" fill="#1b1815" opacity="0.75"/><rect x="32" width="2" height="26" fill="#1b1815" opacity="0.75"/><rect x="40" width="1" height="26" fill="#1b1815" opacity="0.75"/><rect x="52" width="2" height="26" fill="#1b1815" opacity="0.75"/><rect x="59" width="2" height="26" fill="#1b1815" opacity="0.75"/><rect x="71" width="4" height="26" fill="#1b1815" opacity="0.75"/><rect x="77" width="2" height="26" fill="#1b1815" opacity="0.75"/><rect x="84" width="1" height="26" fill="#1b1815" opacity="0.75"/><rect x="87" width="1" height="26" fill="#1b1815" opacity="0.75"/><rect x="90" width="4" height="26" fill="#1b1815" opacity="0.75"/><rect x="96" width="2" height="26" fill="#1b1815" opacity="0.75"/><rect x="100" width="1" height="26" fill="#1b1815" opacity="0.75"/></g>
  <g transform="translate(864 496)" font-family="ui-monospace, 'Cascadia Mono', 'SF Mono', Consolas, monospace">
    <rect width="272" height="30" fill="none" stroke="#6f665a" stroke-width="1"/>
    <text x="136" y="20" text-anchor="middle" font-size="13" letter-spacing="2" fill="#6f665a">EST. MMXXVI · OPEN ARCHIVE</text>
  </g>

  <!-- scanline + vignette -->
  <rect class="scan" x="0" y="-4" width="1200" height="3" fill="#1b1815" opacity="0.05"/>
  <rect width="1200" height="560" fill="url(#vig)" pointer-events="none"/>
</svg>